<mxfile host="" modified="2020-05-24T15:21:41.060Z" agent="5.0 (X11; Linux x86_64) AppleWebKit/537.36 (KHTML, like Gecko) Code/1.45.0 Chrome/78.0.3904.130 Electron/7.2.4 Safari/537.36" version="13.1.3" etag="lrwgP8mNOWNbAz78NI_h" pages="2">
            <diagram id="diagramid" name="Diagram">
              <mxGraphModel><root><mxCell id="0"/><mxCell id="1" parent="0"/><mxCell id="2" value="CloudformationExecutionRole" style="outlineConnect=0;fontColor=#B3B3B3;gradientColor=#F54749;gradientDirection=north;fillColor=#C7131F;strokeColor=#ffffff;dashed=0;verticalLabelPosition=bottom;verticalAlign=top;align=center;html=1;fontSize=12;fontStyle=0;aspect=fixed;shape=mxgraph.aws4.resourceIcon;resIcon=mxgraph.aws4.role;" vertex="1" parent="1"><mxGeometry x="250" y="700" width="50" height="50" as="geometry"/></mxCell><mxCell id="3" value="EnvironmentManagerRole" style="outlineConnect=0;fontColor=#B3B3B3;gradientColor=#F54749;gradientDirection=north;fillColor=#C7131F;strokeColor=#ffffff;dashed=0;verticalLabelPosition=bottom;verticalAlign=top;align=center;html=1;fontSize=12;fontStyle=0;aspect=fixed;shape=mxgraph.aws4.resourceIcon;resIcon=mxgraph.aws4.role;" vertex="1" parent="1"><mxGeometry y="350" width="50" height="50" as="geometry"/></mxCell><mxCell id="4" value="VPC" style="outlineConnect=0;fontColor=#B3B3B3;gradientColor=#945DF2;gradientDirection=north;fillColor=#5A30B5;strokeColor=#ffffff;dashed=0;verticalLabelPosition=bottom;verticalAlign=top;align=center;html=1;fontSize=12;fontStyle=0;aspect=fixed;shape=mxgraph.aws4.resourceIcon;resIcon=mxgraph.aws4.vpc;" vertex="1" parent="1"><mxGeometry x="750" y="1800" width="50" height="50" as="geometry"/></mxCell><mxCell id="5" value="PublicRouteTable" style="outlineConnect=0;fontColor=#B3B3B3;gradientColor=#945DF2;gradientDirection=north;fillColor=#5A30B5;strokeColor=#ffffff;dashed=0;verticalLabelPosition=bottom;verticalAlign=top;align=center;html=1;fontSize=12;fontStyle=0;aspect=fixed;shape=mxgraph.aws4.resourceIcon;resIcon=mxgraph.aws4.route_table;" vertex="1" parent="1"><mxGeometry x="250" y="1000" width="50" height="50" as="geometry"/></mxCell><mxCell id="6" value="DefaultPublicRoute" style="outlineConnect=0;fontColor=#B3B3B3;gradientColor=#945DF2;gradientDirection=north;fillColor=#5A30B5;strokeColor=#ffffff;dashed=0;verticalLabelPosition=bottom;verticalAlign=top;align=center;html=1;fontSize=12;fontStyle=0;aspect=fixed;shape=mxgraph.aws4.resourceIcon;resIcon=mxgraph.aws4.route_table;" vertex="1" parent="1"><mxGeometry y="950" width="50" height="50" as="geometry"/></mxCell><mxCell id="7" value="InternetGateway" style="outlineConnect=0;fontColor=#B3B3B3;gradientColor=#F78E04;gradientDirection=north;fillColor=#D05C17;strokeColor=#ffffff;dashed=0;verticalLabelPosition=bottom;verticalAlign=top;align=center;html=1;fontSize=12;fontStyle=0;aspect=fixed;shape=mxgraph.aws4.resourceIcon;resIcon=mxgraph.aws4.ec2;" vertex="1" parent="1"><mxGeometry x="250" y="900" width="50" height="50" as="geometry"/></mxCell><mxCell id="8" value="InternetGatewayAttachment" style="outlineConnect=0;fontColor=#B3B3B3;gradientColor=#F78E04;gradientDirection=north;fillColor=#D05C17;strokeColor=#ffffff;dashed=0;verticalLabelPosition=bottom;verticalAlign=top;align=center;html=1;fontSize=12;fontStyle=0;aspect=fixed;shape=mxgraph.aws4.resourceIcon;resIcon=mxgraph.aws4.ec2;" vertex="1" parent="1"><mxGeometry y="850" width="50" height="50" as="geometry"/></mxCell><mxCell id="9" value="PublicSubnet1" style="outlineConnect=0;fontColor=#B3B3B3;gradientColor=#F78E04;gradientDirection=north;fillColor=#D05C17;strokeColor=#ffffff;dashed=0;verticalLabelPosition=bottom;verticalAlign=top;align=center;html=1;fontSize=12;fontStyle=0;aspect=fixed;shape=mxgraph.aws4.resourceIcon;resIcon=mxgraph.aws4.ec2;" vertex="1" parent="1"><mxGeometry x="500" y="1150" width="50" height="50" as="geometry"/></mxCell><mxCell id="10" value="PublicSubnet2" style="outlineConnect=0;fontColor=#B3B3B3;gradientColor=#F78E04;gradientDirection=north;fillColor=#D05C17;strokeColor=#ffffff;dashed=0;verticalLabelPosition=bottom;verticalAlign=top;align=center;html=1;fontSize=12;fontStyle=0;aspect=fixed;shape=mxgraph.aws4.resourceIcon;resIcon=mxgraph.aws4.ec2;" vertex="1" parent="1"><mxGeometry x="500" y="1400" width="50" height="50" as="geometry"/></mxCell><mxCell id="11" value="PrivateSubnet1" style="outlineConnect=0;fontColor=#B3B3B3;gradientColor=#F78E04;gradientDirection=north;fillColor=#D05C17;strokeColor=#ffffff;dashed=0;verticalLabelPosition=bottom;verticalAlign=top;align=center;html=1;fontSize=12;fontStyle=0;aspect=fixed;shape=mxgraph.aws4.resourceIcon;resIcon=mxgraph.aws4.ec2;" vertex="1" parent="1"><mxGeometry x="500" y="2300" width="50" height="50" as="geometry"/></mxCell><mxCell id="12" value="PrivateSubnet2" style="outlineConnect=0;fontColor=#B3B3B3;gradientColor=#F78E04;gradientDirection=north;fillColor=#D05C17;strokeColor=#ffffff;dashed=0;verticalLabelPosition=bottom;verticalAlign=top;align=center;html=1;fontSize=12;fontStyle=0;aspect=fixed;shape=mxgraph.aws4.resourceIcon;resIcon=mxgraph.aws4.ec2;" vertex="1" parent="1"><mxGeometry x="500" y="2400" width="50" height="50" as="geometry"/></mxCell><mxCell id="13" value="PublicSubnet1RouteTableAssociation" style="outlineConnect=0;fontColor=#B3B3B3;gradientColor=#945DF2;gradientDirection=north;fillColor=#5A30B5;strokeColor=#ffffff;dashed=0;verticalLabelPosition=bottom;verticalAlign=top;align=center;html=1;fontSize=12;fontStyle=0;aspect=fixed;shape=mxgraph.aws4.resourceIcon;resIcon=mxgraph.aws4.route_table;" vertex="1" parent="1"><mxGeometry y="1050" width="50" height="50" as="geometry"/></mxCell><mxCell id="14" value="PublicSubnet2RouteTableAssociation" style="outlineConnect=0;fontColor=#B3B3B3;gradientColor=#945DF2;gradientDirection=north;fillColor=#5A30B5;strokeColor=#ffffff;dashed=0;verticalLabelPosition=bottom;verticalAlign=top;align=center;html=1;fontSize=12;fontStyle=0;aspect=fixed;shape=mxgraph.aws4.resourceIcon;resIcon=mxgraph.aws4.route_table;" vertex="1" parent="1"><mxGeometry y="1150" width="50" height="50" as="geometry"/></mxCell><mxCell id="15" value="NatGateway1Attachment" style="outlineConnect=0;fontColor=#B3B3B3;gradientColor=#945DF2;gradientDirection=north;fillColor=#5A30B5;strokeColor=#ffffff;dashed=0;verticalLabelPosition=bottom;verticalAlign=top;align=center;html=1;fontSize=12;fontStyle=0;aspect=fixed;shape=mxgraph.aws4.resourceIcon;resIcon=mxgraph.aws4.elastic_ip_address;" vertex="1" parent="1"><mxGeometry x="500" y="1250" width="50" height="50" as="geometry"/></mxCell><mxCell id="16" value="NatGateway1" style="outlineConnect=0;fontColor=#B3B3B3;gradientColor=#945DF2;gradientDirection=north;fillColor=#5A30B5;strokeColor=#ffffff;dashed=0;verticalLabelPosition=bottom;verticalAlign=top;align=center;html=1;fontSize=12;fontStyle=0;aspect=fixed;shape=mxgraph.aws4.resourceIcon;resIcon=mxgraph.aws4.nat_gateway;" vertex="1" parent="1"><mxGeometry x="250" y="1150" width="50" height="50" as="geometry"/></mxCell><mxCell id="17" value="PrivateRouteTable1" style="outlineConnect=0;fontColor=#B3B3B3;gradientColor=#945DF2;gradientDirection=north;fillColor=#5A30B5;strokeColor=#ffffff;dashed=0;verticalLabelPosition=bottom;verticalAlign=top;align=center;html=1;fontSize=12;fontStyle=0;aspect=fixed;shape=mxgraph.aws4.resourceIcon;resIcon=mxgraph.aws4.route_table;" vertex="1" parent="1"><mxGeometry x="250" y="1300" width="50" height="50" as="geometry"/></mxCell><mxCell id="18" value="PrivateRoute1" style="outlineConnect=0;fontColor=#B3B3B3;gradientColor=#945DF2;gradientDirection=north;fillColor=#5A30B5;strokeColor=#ffffff;dashed=0;verticalLabelPosition=bottom;verticalAlign=top;align=center;html=1;fontSize=12;fontStyle=0;aspect=fixed;shape=mxgraph.aws4.resourceIcon;resIcon=mxgraph.aws4.route_table;" vertex="1" parent="1"><mxGeometry y="1250" width="50" height="50" as="geometry"/></mxCell><mxCell id="19" value="PrivateRouteTable1Association" style="outlineConnect=0;fontColor=#B3B3B3;gradientColor=#945DF2;gradientDirection=north;fillColor=#5A30B5;strokeColor=#ffffff;dashed=0;verticalLabelPosition=bottom;verticalAlign=top;align=center;html=1;fontSize=12;fontStyle=0;aspect=fixed;shape=mxgraph.aws4.resourceIcon;resIcon=mxgraph.aws4.route_table;" vertex="1" parent="1"><mxGeometry y="1350" width="50" height="50" as="geometry"/></mxCell><mxCell id="20" value="NatGateway2Attachment" style="outlineConnect=0;fontColor=#B3B3B3;gradientColor=#945DF2;gradientDirection=north;fillColor=#5A30B5;strokeColor=#ffffff;dashed=0;verticalLabelPosition=bottom;verticalAlign=top;align=center;html=1;fontSize=12;fontStyle=0;aspect=fixed;shape=mxgraph.aws4.resourceIcon;resIcon=mxgraph.aws4.elastic_ip_address;" vertex="1" parent="1"><mxGeometry x="500" y="1500" width="50" height="50" as="geometry"/></mxCell><mxCell id="21" value="NatGateway2" style="outlineConnect=0;fontColor=#B3B3B3;gradientColor=#945DF2;gradientDirection=north;fillColor=#5A30B5;strokeColor=#ffffff;dashed=0;verticalLabelPosition=bottom;verticalAlign=top;align=center;html=1;fontSize=12;fontStyle=0;aspect=fixed;shape=mxgraph.aws4.resourceIcon;resIcon=mxgraph.aws4.nat_gateway;" vertex="1" parent="1"><mxGeometry x="250" y="1400" width="50" height="50" as="geometry"/></mxCell><mxCell id="22" value="PrivateRouteTable2" style="outlineConnect=0;fontColor=#B3B3B3;gradientColor=#945DF2;gradientDirection=north;fillColor=#5A30B5;strokeColor=#ffffff;dashed=0;verticalLabelPosition=bottom;verticalAlign=top;align=center;html=1;fontSize=12;fontStyle=0;aspect=fixed;shape=mxgraph.aws4.resourceIcon;resIcon=mxgraph.aws4.route_table;" vertex="1" parent="1"><mxGeometry x="250" y="1550" width="50" height="50" as="geometry"/></mxCell><mxCell id="23" value="PrivateRoute2" style="outlineConnect=0;fontColor=#B3B3B3;gradientColor=#945DF2;gradientDirection=north;fillColor=#5A30B5;strokeColor=#ffffff;dashed=0;verticalLabelPosition=bottom;verticalAlign=top;align=center;html=1;fontSize=12;fontStyle=0;aspect=fixed;shape=mxgraph.aws4.resourceIcon;resIcon=mxgraph.aws4.route_table;" vertex="1" parent="1"><mxGeometry y="1450" width="50" height="50" as="geometry"/></mxCell><mxCell id="24" value="PrivateRouteTable2Association" style="outlineConnect=0;fontColor=#B3B3B3;gradientColor=#945DF2;gradientDirection=north;fillColor=#5A30B5;strokeColor=#ffffff;dashed=0;verticalLabelPosition=bottom;verticalAlign=top;align=center;html=1;fontSize=12;fontStyle=0;aspect=fixed;shape=mxgraph.aws4.resourceIcon;resIcon=mxgraph.aws4.route_table;" vertex="1" parent="1"><mxGeometry y="1550" width="50" height="50" as="geometry"/></mxCell><mxCell id="25" value="ServiceDiscoveryNamespace" style="outlineConnect=0;fontColor=#B3B3B3;gradientColor=#aaaaaa;gradientDirection=north;fillColor=#aaaaaa;strokeColor=#ffffff;dashed=0;verticalLabelPosition=bottom;verticalAlign=top;align=center;html=1;fontSize=12;fontStyle=0;aspect=fixed;shape=mxgraph.aws4.resourceIcon;resIcon=mxgraph.aws4.servicediscovery;" vertex="1" parent="1"><mxGeometry x="500" y="1800" width="50" height="50" as="geometry"/></mxCell><mxCell id="26" value="Cluster" style="outlineConnect=0;fontColor=#B3B3B3;gradientColor=#F78E04;gradientDirection=north;fillColor=#D05C17;strokeColor=#ffffff;dashed=0;verticalLabelPosition=bottom;verticalAlign=top;align=center;html=1;fontSize=12;fontStyle=0;aspect=fixed;shape=mxgraph.aws4.resourceIcon;resIcon=mxgraph.aws4.ecs;" vertex="1" parent="1"><mxGeometry y="3100" width="50" height="50" as="geometry"/></mxCell><mxCell id="27" value="PublicHTTPLoadBalancerSecurityGroup" style="outlineConnect=0;fontColor=#B3B3B3;gradientColor=#F78E04;gradientDirection=north;fillColor=#D05C17;strokeColor=#ffffff;dashed=0;verticalLabelPosition=bottom;verticalAlign=top;align=center;html=1;fontSize=12;fontStyle=0;aspect=fixed;shape=mxgraph.aws4.resourceIcon;resIcon=mxgraph.aws4.ec2;" vertex="1" parent="1"><mxGeometry x="500" y="1700" width="50" height="50" as="geometry"/></mxCell><mxCell id="28" value="PublicHTTPSLoadBalancerSecurityGroup" style="outlineConnect=0;fontColor=#B3B3B3;gradientColor=#F78E04;gradientDirection=north;fillColor=#D05C17;strokeColor=#ffffff;dashed=0;verticalLabelPosition=bottom;verticalAlign=top;align=center;html=1;fontSize=12;fontStyle=0;aspect=fixed;shape=mxgraph.aws4.resourceIcon;resIcon=mxgraph.aws4.ec2;" vertex="1" parent="1"><mxGeometry x="500" y="1900" width="50" height="50" as="geometry"/></mxCell><mxCell id="29" value="InternalLoadBalancerSecurityGroup" style="outlineConnect=0;fontColor=#B3B3B3;gradientColor=#F78E04;gradientDirection=north;fillColor=#D05C17;strokeColor=#ffffff;dashed=0;verticalLabelPosition=bottom;verticalAlign=top;align=center;html=1;fontSize=12;fontStyle=0;aspect=fixed;shape=mxgraph.aws4.resourceIcon;resIcon=mxgraph.aws4.ec2;" vertex="1" parent="1"><mxGeometry x="500" y="2000" width="50" height="50" as="geometry"/></mxCell><mxCell id="30" value="EnvironmentSecurityGroup" style="outlineConnect=0;fontColor=#B3B3B3;gradientColor=#F78E04;gradientDirection=north;fillColor=#D05C17;strokeColor=#ffffff;dashed=0;verticalLabelPosition=bottom;verticalAlign=top;align=center;html=1;fontSize=12;fontStyle=0;aspect=fixed;shape=mxgraph.aws4.resourceIcon;resIcon=mxgraph.aws4.ec2;" vertex="1" parent="1"><mxGeometry x="250" y="1850" width="50" height="50" as="geometry"/></mxCell><mxCell id="31" value="EnvironmentHTTPSecurityGroupIngressFromPublicALB" style="outlineConnect=0;fontColor=#B3B3B3;gradientColor=#F78E04;gradientDirection=north;fillColor=#D05C17;strokeColor=#ffffff;dashed=0;verticalLabelPosition=bottom;verticalAlign=top;align=center;html=1;fontSize=12;fontStyle=0;aspect=fixed;shape=mxgraph.aws4.resourceIcon;resIcon=mxgraph.aws4.ec2;" vertex="1" parent="1"><mxGeometry y="1650" width="50" height="50" as="geometry"/></mxCell><mxCell id="32" value="EnvironmentHTTPSSecurityGroupIngressFromPublicALB" style="outlineConnect=0;fontColor=#B3B3B3;gradientColor=#F78E04;gradientDirection=north;fillColor=#D05C17;strokeColor=#ffffff;dashed=0;verticalLabelPosition=bottom;verticalAlign=top;align=center;html=1;fontSize=12;fontStyle=0;aspect=fixed;shape=mxgraph.aws4.resourceIcon;resIcon=mxgraph.aws4.ec2;" vertex="1" parent="1"><mxGeometry y="1750" width="50" height="50" as="geometry"/></mxCell><mxCell id="33" value="EnvironmentSecurityGroupIngressFromInternalALB" style="outlineConnect=0;fontColor=#B3B3B3;gradientColor=#F78E04;gradientDirection=north;fillColor=#D05C17;strokeColor=#ffffff;dashed=0;verticalLabelPosition=bottom;verticalAlign=top;align=center;html=1;fontSize=12;fontStyle=0;aspect=fixed;shape=mxgraph.aws4.resourceIcon;resIcon=mxgraph.aws4.ec2;" vertex="1" parent="1"><mxGeometry y="1850" width="50" height="50" as="geometry"/></mxCell><mxCell id="34" value="EnvironmentSecurityGroupIngressFromSelf" style="outlineConnect=0;fontColor=#B3B3B3;gradientColor=#F78E04;gradientDirection=north;fillColor=#D05C17;strokeColor=#ffffff;dashed=0;verticalLabelPosition=bottom;verticalAlign=top;align=center;html=1;fontSize=12;fontStyle=0;aspect=fixed;shape=mxgraph.aws4.resourceIcon;resIcon=mxgraph.aws4.ec2;" vertex="1" parent="1"><mxGeometry y="1950" width="50" height="50" as="geometry"/></mxCell><mxCell id="35" value="InternalALBIngressFromEnvironmentSecurityGroup" style="outlineConnect=0;fontColor=#B3B3B3;gradientColor=#F78E04;gradientDirection=north;fillColor=#D05C17;strokeColor=#ffffff;dashed=0;verticalLabelPosition=bottom;verticalAlign=top;align=center;html=1;fontSize=12;fontStyle=0;aspect=fixed;shape=mxgraph.aws4.resourceIcon;resIcon=mxgraph.aws4.ec2;" vertex="1" parent="1"><mxGeometry y="2050" width="50" height="50" as="geometry"/></mxCell><mxCell id="36" value="PublicLoadBalancer" style="outlineConnect=0;fontColor=#B3B3B3;gradientColor=#aaaaaa;gradientDirection=north;fillColor=#aaaaaa;strokeColor=#ffffff;dashed=0;verticalLabelPosition=bottom;verticalAlign=top;align=center;html=1;fontSize=12;fontStyle=0;aspect=fixed;shape=mxgraph.aws4.resourceIcon;resIcon=mxgraph.aws4.elasticloadbalancingv2;" vertex="1" parent="1"><mxGeometry x="250" y="1950" width="50" height="50" as="geometry"/></mxCell><mxCell id="37" value="DefaultHTTPTargetGroup" style="outlineConnect=0;fontColor=#B3B3B3;gradientColor=#aaaaaa;gradientDirection=north;fillColor=#aaaaaa;strokeColor=#ffffff;dashed=0;verticalLabelPosition=bottom;verticalAlign=top;align=center;html=1;fontSize=12;fontStyle=0;aspect=fixed;shape=mxgraph.aws4.resourceIcon;resIcon=mxgraph.aws4.elasticloadbalancingv2;" vertex="1" parent="1"><mxGeometry x="250" y="2100" width="50" height="50" as="geometry"/></mxCell><mxCell id="38" value="HTTPListener" style="outlineConnect=0;fontColor=#B3B3B3;gradientColor=#aaaaaa;gradientDirection=north;fillColor=#aaaaaa;strokeColor=#ffffff;dashed=0;verticalLabelPosition=bottom;verticalAlign=top;align=center;html=1;fontSize=12;fontStyle=0;aspect=fixed;shape=mxgraph.aws4.resourceIcon;resIcon=mxgraph.aws4.elasticloadbalancingv2;" vertex="1" parent="1"><mxGeometry y="2150" width="50" height="50" as="geometry"/></mxCell><mxCell id="39" value="HTTPSListener" style="outlineConnect=0;fontColor=#B3B3B3;gradientColor=#aaaaaa;gradientDirection=north;fillColor=#aaaaaa;strokeColor=#ffffff;dashed=0;verticalLabelPosition=bottom;verticalAlign=top;align=center;html=1;fontSize=12;fontStyle=0;aspect=fixed;shape=mxgraph.aws4.resourceIcon;resIcon=mxgraph.aws4.elasticloadbalancingv2;" vertex="1" parent="1"><mxGeometry y="2250" width="50" height="50" as="geometry"/></mxCell><mxCell id="40" value="InternalLoadBalancer" style="outlineConnect=0;fontColor=#B3B3B3;gradientColor=#aaaaaa;gradientDirection=north;fillColor=#aaaaaa;strokeColor=#ffffff;dashed=0;verticalLabelPosition=bottom;verticalAlign=top;align=center;html=1;fontSize=12;fontStyle=0;aspect=fixed;shape=mxgraph.aws4.resourceIcon;resIcon=mxgraph.aws4.elasticloadbalancingv2;" vertex="1" parent="1"><mxGeometry x="250" y="2400" width="50" height="50" as="geometry"/></mxCell><mxCell id="41" value="DefaultInternalHTTPTargetGroup" style="outlineConnect=0;fontColor=#B3B3B3;gradientColor=#aaaaaa;gradientDirection=north;fillColor=#aaaaaa;strokeColor=#ffffff;dashed=0;verticalLabelPosition=bottom;verticalAlign=top;align=center;html=1;fontSize=12;fontStyle=0;aspect=fixed;shape=mxgraph.aws4.resourceIcon;resIcon=mxgraph.aws4.elasticloadbalancingv2;" vertex="1" parent="1"><mxGeometry x="250" y="2300" width="50" height="50" as="geometry"/></mxCell><mxCell id="42" value="InternalHTTPListener" style="outlineConnect=0;fontColor=#B3B3B3;gradientColor=#aaaaaa;gradientDirection=north;fillColor=#aaaaaa;strokeColor=#ffffff;dashed=0;verticalLabelPosition=bottom;verticalAlign=top;align=center;html=1;fontSize=12;fontStyle=0;aspect=fixed;shape=mxgraph.aws4.resourceIcon;resIcon=mxgraph.aws4.elasticloadbalancingv2;" vertex="1" parent="1"><mxGeometry y="2350" width="50" height="50" as="geometry"/></mxCell><mxCell id="43" value="InternalHTTPSListener" style="outlineConnect=0;fontColor=#B3B3B3;gradientColor=#aaaaaa;gradientDirection=north;fillColor=#aaaaaa;strokeColor=#ffffff;dashed=0;verticalLabelPosition=bottom;verticalAlign=top;align=center;html=1;fontSize=12;fontStyle=0;aspect=fixed;shape=mxgraph.aws4.resourceIcon;resIcon=mxgraph.aws4.elasticloadbalancingv2;" vertex="1" parent="1"><mxGeometry y="2450" width="50" height="50" as="geometry"/></mxCell><mxCell id="44" value="InternalWorkloadsHostedZone" style="outlineConnect=0;fontColor=#B3B3B3;gradientColor=#945DF2;gradientDirection=north;fillColor=#5A30B5;strokeColor=#ffffff;dashed=0;verticalLabelPosition=bottom;verticalAlign=top;align=center;html=1;fontSize=12;fontStyle=0;aspect=fixed;shape=mxgraph.aws4.resourceIcon;resIcon=mxgraph.aws4.route53;" vertex="1" parent="1"><mxGeometry x="500" y="2550" width="50" height="50" as="geometry"/></mxCell><mxCell id="45" value="FileSystem" style="outlineConnect=0;fontColor=#B3B3B3;gradientColor=#60A337;gradientDirection=north;fillColor=#277116;strokeColor=#ffffff;dashed=0;verticalLabelPosition=bottom;verticalAlign=top;align=center;html=1;fontSize=12;fontStyle=0;aspect=fixed;shape=mxgraph.aws4.resourceIcon;resIcon=mxgraph.aws4.efs;" vertex="1" parent="1"><mxGeometry x="250" y="2650" width="50" height="50" as="geometry"/></mxCell><mxCell id="46" value="EFSSecurityGroup" style="outlineConnect=0;fontColor=#B3B3B3;gradientColor=#F78E04;gradientDirection=north;fillColor=#D05C17;strokeColor=#ffffff;dashed=0;verticalLabelPosition=bottom;verticalAlign=top;align=center;html=1;fontSize=12;fontStyle=0;aspect=fixed;shape=mxgraph.aws4.resourceIcon;resIcon=mxgraph.aws4.ec2;" vertex="1" parent="1"><mxGeometry x="250" y="2550" width="50" height="50" as="geometry"/></mxCell><mxCell id="47" value="EFSSecurityGroupIngressFromEnvironment" style="outlineConnect=0;fontColor=#B3B3B3;gradientColor=#F78E04;gradientDirection=north;fillColor=#D05C17;strokeColor=#ffffff;dashed=0;verticalLabelPosition=bottom;verticalAlign=top;align=center;html=1;fontSize=12;fontStyle=0;aspect=fixed;shape=mxgraph.aws4.resourceIcon;resIcon=mxgraph.aws4.ec2;" vertex="1" parent="1"><mxGeometry y="2550" width="50" height="50" as="geometry"/></mxCell><mxCell id="48" value="MountTarget1" style="outlineConnect=0;fontColor=#B3B3B3;gradientColor=#60A337;gradientDirection=north;fillColor=#277116;strokeColor=#ffffff;dashed=0;verticalLabelPosition=bottom;verticalAlign=top;align=center;html=1;fontSize=12;fontStyle=0;aspect=fixed;shape=mxgraph.aws4.resourceIcon;resIcon=mxgraph.aws4.efs;" vertex="1" parent="1"><mxGeometry y="2650" width="50" height="50" as="geometry"/></mxCell><mxCell id="49" value="MountTarget2" style="outlineConnect=0;fontColor=#B3B3B3;gradientColor=#60A337;gradientDirection=north;fillColor=#277116;strokeColor=#ffffff;dashed=0;verticalLabelPosition=bottom;verticalAlign=top;align=center;html=1;fontSize=12;fontStyle=0;aspect=fixed;shape=mxgraph.aws4.resourceIcon;resIcon=mxgraph.aws4.efs;" vertex="1" parent="1"><mxGeometry y="2750" width="50" height="50" as="geometry"/></mxCell><mxCell id="50" value="CustomResourceRole" style="outlineConnect=0;fontColor=#B3B3B3;gradientColor=#F54749;gradientDirection=north;fillColor=#C7131F;strokeColor=#ffffff;dashed=0;verticalLabelPosition=bottom;verticalAlign=top;align=center;html=1;fontSize=12;fontStyle=0;aspect=fixed;shape=mxgraph.aws4.resourceIcon;resIcon=mxgraph.aws4.role;" vertex="1" parent="1"><mxGeometry x="750" y="2725" width="50" height="50" as="geometry"/></mxCell><mxCell id="51" value="EnvironmentHostedZone" style="outlineConnect=0;fontColor=#B3B3B3;gradientColor=#945DF2;gradientDirection=north;fillColor=#5A30B5;strokeColor=#ffffff;dashed=0;verticalLabelPosition=bottom;verticalAlign=top;align=center;html=1;fontSize=12;fontStyle=0;aspect=fixed;shape=mxgraph.aws4.resourceIcon;resIcon=mxgraph.aws4.route53;" vertex="1" parent="1"><mxGeometry x="500" y="2650" width="50" height="50" as="geometry"/></mxCell><mxCell id="52" value="CertificateValidationFunction" style="outlineConnect=0;fontColor=#B3B3B3;gradientColor=#F78E04;gradientDirection=north;fillColor=#D05C17;strokeColor=#ffffff;dashed=0;verticalLabelPosition=bottom;verticalAlign=top;align=center;html=1;fontSize=12;fontStyle=0;aspect=fixed;shape=mxgraph.aws4.resourceIcon;resIcon=mxgraph.aws4.lambda;" vertex="1" parent="1"><mxGeometry x="500" y="2150" width="50" height="50" as="geometry"/></mxCell><mxCell id="53" value="CustomDomainFunction" style="outlineConnect=0;fontColor=#B3B3B3;gradientColor=#F78E04;gradientDirection=north;fillColor=#D05C17;strokeColor=#ffffff;dashed=0;verticalLabelPosition=bottom;verticalAlign=top;align=center;html=1;fontSize=12;fontStyle=0;aspect=fixed;shape=mxgraph.aws4.resourceIcon;resIcon=mxgraph.aws4.lambda;" vertex="1" parent="1"><mxGeometry x="250" y="2950" width="50" height="50" as="geometry"/></mxCell><mxCell id="54" value="DNSDelegationFunction" style="outlineConnect=0;fontColor=#B3B3B3;gradientColor=#F78E04;gradientDirection=north;fillColor=#D05C17;strokeColor=#ffffff;dashed=0;verticalLabelPosition=bottom;verticalAlign=top;align=center;html=1;fontSize=12;fontStyle=0;aspect=fixed;shape=mxgraph.aws4.resourceIcon;resIcon=mxgraph.aws4.lambda;" vertex="1" parent="1"><mxGeometry x="250" y="2850" width="50" height="50" as="geometry"/></mxCell><mxCell id="55" value="DelegateDNSAction" style="outlineConnect=0;fontColor=#B3B3B3;gradientColor=#aaaaaa;gradientDirection=north;fillColor=#aaaaaa;strokeColor=#ffffff;dashed=0;verticalLabelPosition=bottom;verticalAlign=top;align=center;html=1;fontSize=12;fontStyle=0;aspect=fixed;shape=mxgraph.aws4.resourceIcon;resIcon=mxgraph.aws4.dnsdelegationfunction;" vertex="1" parent="1"><mxGeometry y="2850" width="50" height="50" as="geometry"/></mxCell><mxCell id="56" value="HTTPSCert" style="outlineConnect=0;fontColor=#B3B3B3;gradientColor=#aaaaaa;gradientDirection=north;fillColor=#aaaaaa;strokeColor=#ffffff;dashed=0;verticalLabelPosition=bottom;verticalAlign=top;align=center;html=1;fontSize=12;fontStyle=0;aspect=fixed;shape=mxgraph.aws4.resourceIcon;resIcon=mxgraph.aws4.certificatevalidationfunction;" vertex="1" parent="1"><mxGeometry x="250" y="2200" width="50" height="50" as="geometry"/></mxCell><mxCell id="57" value="CustomDomainAction" style="outlineConnect=0;fontColor=#B3B3B3;gradientColor=#aaaaaa;gradientDirection=north;fillColor=#aaaaaa;strokeColor=#ffffff;dashed=0;verticalLabelPosition=bottom;verticalAlign=top;align=center;html=1;fontSize=12;fontStyle=0;aspect=fixed;shape=mxgraph.aws4.resourceIcon;resIcon=mxgraph.aws4.customdomainfunction;" vertex="1" parent="1"><mxGeometry y="2950" width="50" height="50" as="geometry"/></mxCell><mxCell id="58" value="states  &#xA;${appname}-${environmentname}-*" style="outlineConnect=0;fontColor=#B3B3B3;gradientColor=#aaaaaa;gradientDirection=north;fillColor=#aaaaaa;strokeColor=#ffffff;dashed=0;verticalLabelPosition=bottom;verticalAlign=top;align=center;html=1;fontSize=12;fontStyle=0;aspect=fixed;shape=mxgraph.aws4.resourceIcon;resIcon=mxgraph.aws4.states;" vertex="1" parent="1"><mxGeometry x="250" width="50" height="50" as="geometry"/></mxCell><mxCell id="59" value="ssm  &#xA;parameter/copilot/${appname}/${environmentname}/secrets/*" style="outlineConnect=0;fontColor=#B3B3B3;gradientColor=#aaaaaa;gradientDirection=north;fillColor=#aaaaaa;strokeColor=#ffffff;dashed=0;verticalLabelPosition=bottom;verticalAlign=top;align=center;html=1;fontSize=12;fontStyle=0;aspect=fixed;shape=mxgraph.aws4.resourceIcon;resIcon=mxgraph.aws4.ssm;" vertex="1" parent="1"><mxGeometry x="250" y="100" width="50" height="50" as="geometry"/></mxCell><mxCell id="60" value="s3  &#xA;stackset-sleepywood-infr-pipelinebuiltartifactbuc-1ie6ebspzy9ld" style="outlineConnect=0;fontColor=#B3B3B3;gradientColor=#aaaaaa;gradientDirection=north;fillColor=#aaaaaa;strokeColor=#ffffff;dashed=0;verticalLabelPosition=bottom;verticalAlign=top;align=center;html=1;fontSize=12;fontStyle=0;aspect=fixed;shape=mxgraph.aws4.resourceIcon;resIcon=mxgraph.aws4.s3;" vertex="1" parent="1"><mxGeometry x="250" y="200" width="50" height="50" as="geometry"/></mxCell><mxCell id="61" value="s3  &#xA;stackset-sleepywood-infr-pipelinebuiltartifactbuc-1ie6ebspzy9ld/*" style="outlineConnect=0;fontColor=#B3B3B3;gradientColor=#aaaaaa;gradientDirection=north;fillColor=#aaaaaa;strokeColor=#ffffff;dashed=0;verticalLabelPosition=bottom;verticalAlign=top;align=center;html=1;fontSize=12;fontStyle=0;aspect=fixed;shape=mxgraph.aws4.resourceIcon;resIcon=mxgraph.aws4.s3;" vertex="1" parent="1"><mxGeometry x="250" y="300" width="50" height="50" as="geometry"/></mxCell><mxCell id="62" value="kms us-east-1 135053005683&#xA;key/43adf778-4976-41b0-9f97-92290446b19d" style="outlineConnect=0;fontColor=#B3B3B3;gradientColor=#aaaaaa;gradientDirection=north;fillColor=#aaaaaa;strokeColor=#ffffff;dashed=0;verticalLabelPosition=bottom;verticalAlign=top;align=center;html=1;fontSize=12;fontStyle=0;aspect=fixed;shape=mxgraph.aws4.resourceIcon;resIcon=mxgraph.aws4.key_management_service;" vertex="1" parent="1"><mxGeometry x="250" y="400" width="50" height="50" as="geometry"/></mxCell><mxCell id="63" value="iam  &#xA;role/-envmanagerrole" style="outlineConnect=0;fontColor=#B3B3B3;gradientColor=#aaaaaa;gradientDirection=north;fillColor=#aaaaaa;strokeColor=#ffffff;dashed=0;verticalLabelPosition=bottom;verticalAlign=top;align=center;html=1;fontSize=12;fontStyle=0;aspect=fixed;shape=mxgraph.aws4.resourceIcon;resIcon=mxgraph.aws4.identity_and_access_management;" vertex="1" parent="1"><mxGeometry x="250" y="500" width="50" height="50" as="geometry"/></mxCell><mxCell id="64" value="cloudformation  &#xA;stack//*" style="outlineConnect=0;fontColor=#B3B3B3;gradientColor=#aaaaaa;gradientDirection=north;fillColor=#aaaaaa;strokeColor=#ffffff;dashed=0;verticalLabelPosition=bottom;verticalAlign=top;align=center;html=1;fontSize=12;fontStyle=0;aspect=fixed;shape=mxgraph.aws4.resourceIcon;resIcon=mxgraph.aws4.cloudformation;" vertex="1" parent="1"><mxGeometry x="250" y="600" width="50" height="50" as="geometry"/></mxCell><mxCell id="states  &#xA;${appname}-${environmentname}-*|EnvironmentManagerRole" value="PolicyDocument" style="edgeStyle=orthogonalEdgeStyle;rounded=1;orthogonalLoop=1;jettySize=auto;html=1;labelBackgroundColor=none;fontColor=#EA6B66;noEdgeStyle=1;orthogonal=1;" edge="1" parent="1" source="3" target="58"><mxGeometry relative="1" as="geometry"><Array as="points"><mxPoint x="62" y="353.125"/><mxPoint x="238" y="25"/></Array></mxGeometry></mxCell><mxCell id="ssm  &#xA;parameter/copilot/${appname}/${environmentname}/secrets/*|EnvironmentManagerRole" value="PolicyDocument" style="edgeStyle=orthogonalEdgeStyle;rounded=1;orthogonalLoop=1;jettySize=auto;html=1;labelBackgroundColor=none;fontColor=#EA6B66;noEdgeStyle=1;orthogonal=1;" edge="1" parent="1" source="3" target="59"><mxGeometry relative="1" as="geometry"><Array as="points"><mxPoint x="64" y="359.375"/><mxPoint x="238" y="125"/></Array></mxGeometry></mxCell><mxCell id="s3  &#xA;stackset-sleepywood-infr-pipelinebuiltartifactbuc-1ie6ebspzy9ld|EnvironmentManagerRole" value="PolicyDocument" style="edgeStyle=orthogonalEdgeStyle;rounded=1;orthogonalLoop=1;jettySize=auto;html=1;labelBackgroundColor=none;fontColor=#EA6B66;noEdgeStyle=1;orthogonal=1;" edge="1" parent="1" source="3" target="60"><mxGeometry relative="1" as="geometry"><Array as="points"><mxPoint x="66" y="365.625"/><mxPoint x="238" y="225"/></Array></mxGeometry></mxCell><mxCell id="s3  &#xA;stackset-sleepywood-infr-pipelinebuiltartifactbuc-1ie6ebspzy9ld/*|EnvironmentManagerRole" value="PolicyDocument" style="edgeStyle=orthogonalEdgeStyle;rounded=1;orthogonalLoop=1;jettySize=auto;html=1;labelBackgroundColor=none;fontColor=#EA6B66;noEdgeStyle=1;orthogonal=1;" edge="1" parent="1" source="3" target="61"><mxGeometry relative="1" as="geometry"><Array as="points"><mxPoint x="68" y="371.875"/><mxPoint x="238" y="325"/></Array></mxGeometry></mxCell><mxCell id="kms us-east-1 135053005683&#xA;key/43adf778-4976-41b0-9f97-92290446b19d|EnvironmentManagerRole" value="PolicyDocument" style="edgeStyle=orthogonalEdgeStyle;rounded=1;orthogonalLoop=1;jettySize=auto;html=1;labelBackgroundColor=none;fontColor=#EA6B66;noEdgeStyle=1;orthogonal=1;" edge="1" parent="1" source="3" target="62"><mxGeometry relative="1" as="geometry"><Array as="points"><mxPoint x="68" y="378.125"/><mxPoint x="238" y="425"/></Array></mxGeometry></mxCell><mxCell id="iam  &#xA;role/-envmanagerrole|EnvironmentManagerRole" value="PolicyDocument" style="edgeStyle=orthogonalEdgeStyle;rounded=1;orthogonalLoop=1;jettySize=auto;html=1;labelBackgroundColor=none;fontColor=#EA6B66;noEdgeStyle=1;orthogonal=1;" edge="1" parent="1" source="3" target="63"><mxGeometry relative="1" as="geometry"><Array as="points"><mxPoint x="66" y="384.375"/><mxPoint x="238" y="525"/></Array></mxGeometry></mxCell><mxCell id="cloudformation  &#xA;stack//*|EnvironmentManagerRole" value="PolicyDocument" style="edgeStyle=orthogonalEdgeStyle;rounded=1;orthogonalLoop=1;jettySize=auto;html=1;labelBackgroundColor=none;fontColor=#EA6B66;noEdgeStyle=1;orthogonal=1;" edge="1" parent="1" source="3" target="64"><mxGeometry relative="1" as="geometry"><Array as="points"><mxPoint x="64" y="390.625"/><mxPoint x="238" y="625"/></Array></mxGeometry></mxCell><mxCell id="CloudformationExecutionRole|EnvironmentManagerRole" value="PolicyDocument" style="edgeStyle=orthogonalEdgeStyle;rounded=1;orthogonalLoop=1;jettySize=auto;html=1;labelBackgroundColor=none;fontColor=#EA6B66;noEdgeStyle=1;orthogonal=1;" edge="1" parent="1" source="3" target="2"><mxGeometry relative="1" as="geometry"><Array as="points"><mxPoint x="62" y="396.875"/><mxPoint x="238" y="725"/></Array></mxGeometry></mxCell><mxCell id="VPC|PublicRouteTable" value="VpcId" style="edgeStyle=orthogonalEdgeStyle;rounded=1;orthogonalLoop=1;jettySize=auto;html=1;labelBackgroundColor=none;fontColor=#EA6B66;noEdgeStyle=1;orthogonal=1;" edge="1" parent="1" source="5" target="4"><mxGeometry relative="1" as="geometry"><Array as="points"><mxPoint x="312" y="1025"/><mxPoint x="400" y="1100"/><mxPoint x="650" y="1100"/><mxPoint x="736" y="1804.4117647058824"/></Array></mxGeometry></mxCell><mxCell id="PublicRouteTable|DefaultPublicRoute" value="RouteTableId" style="edgeStyle=orthogonalEdgeStyle;rounded=1;orthogonalLoop=1;jettySize=auto;html=1;labelBackgroundColor=none;fontColor=#EA6B66;noEdgeStyle=1;orthogonal=1;" edge="1" parent="1" source="6" target="5"><mxGeometry relative="1" as="geometry"><Array as="points"><mxPoint x="62" y="985"/><mxPoint x="238" y="1011.6666666666666"/></Array></mxGeometry></mxCell><mxCell id="InternetGateway|DefaultPublicRoute" value="GatewayId" style="edgeStyle=orthogonalEdgeStyle;rounded=1;orthogonalLoop=1;jettySize=auto;html=1;labelBackgroundColor=none;fontColor=#EA6B66;noEdgeStyle=1;orthogonal=1;" edge="1" parent="1" source="6" target="7"><mxGeometry relative="1" as="geometry"><Array as="points"><mxPoint x="62" y="965"/><mxPoint x="238" y="935"/></Array></mxGeometry></mxCell><mxCell id="InternetGateway|InternetGatewayAttachment" value="InternetGatewayId" style="edgeStyle=orthogonalEdgeStyle;rounded=1;orthogonalLoop=1;jettySize=auto;html=1;labelBackgroundColor=none;fontColor=#EA6B66;noEdgeStyle=1;orthogonal=1;" edge="1" parent="1" source="8" target="7"><mxGeometry relative="1" as="geometry"><Array as="points"><mxPoint x="62" y="885"/><mxPoint x="238" y="915"/></Array></mxGeometry></mxCell><mxCell id="VPC|InternetGatewayAttachment" value="VpcId" style="edgeStyle=orthogonalEdgeStyle;rounded=1;orthogonalLoop=1;jettySize=auto;html=1;labelBackgroundColor=none;fontColor=#EA6B66;noEdgeStyle=1;orthogonal=1;" edge="1" parent="1" source="8" target="4"><mxGeometry relative="1" as="geometry"><Array as="points"><mxPoint x="62" y="865"/><mxPoint x="150" y="850"/><mxPoint x="400" y="850"/><mxPoint x="400" y="850"/><mxPoint x="650" y="850"/><mxPoint x="738" y="1801.4705882352941"/></Array></mxGeometry></mxCell><mxCell id="VPC|PublicSubnet1" value="VpcId" style="edgeStyle=orthogonalEdgeStyle;rounded=1;orthogonalLoop=1;jettySize=auto;html=1;labelBackgroundColor=none;fontColor=#EA6B66;noEdgeStyle=1;orthogonal=1;" edge="1" parent="1" source="9" target="4"><mxGeometry relative="1" as="geometry"><Array as="points"><mxPoint x="562" y="1175"/><mxPoint x="734" y="1807.3529411764707"/></Array></mxGeometry></mxCell><mxCell id="VPC|PublicSubnet2" value="VpcId" style="edgeStyle=orthogonalEdgeStyle;rounded=1;orthogonalLoop=1;jettySize=auto;html=1;labelBackgroundColor=none;fontColor=#EA6B66;noEdgeStyle=1;orthogonal=1;" edge="1" parent="1" source="10" target="4"><mxGeometry relative="1" as="geometry"><Array as="points"><mxPoint x="562" y="1425"/><mxPoint x="730" y="1813.2352941176473"/></Array></mxGeometry></mxCell><mxCell id="VPC|PrivateSubnet1" value="VpcId" style="edgeStyle=orthogonalEdgeStyle;rounded=1;orthogonalLoop=1;jettySize=auto;html=1;labelBackgroundColor=none;fontColor=#EA6B66;noEdgeStyle=1;orthogonal=1;" edge="1" parent="1" source="11" target="4"><mxGeometry relative="1" as="geometry"><Array as="points"><mxPoint x="562" y="2325"/><mxPoint x="732" y="1839.705882352942"/></Array></mxGeometry></mxCell><mxCell id="VPC|PrivateSubnet2" value="VpcId" style="edgeStyle=orthogonalEdgeStyle;rounded=1;orthogonalLoop=1;jettySize=auto;html=1;labelBackgroundColor=none;fontColor=#EA6B66;noEdgeStyle=1;orthogonal=1;" edge="1" parent="1" source="12" target="4"><mxGeometry relative="1" as="geometry"><Array as="points"><mxPoint x="562" y="2425"/><mxPoint x="734" y="1842.6470588235302"/></Array></mxGeometry></mxCell><mxCell id="PublicRouteTable|PublicSubnet1RouteTableAssociation" value="RouteTableId" style="edgeStyle=orthogonalEdgeStyle;rounded=1;orthogonalLoop=1;jettySize=auto;html=1;labelBackgroundColor=none;fontColor=#EA6B66;noEdgeStyle=1;orthogonal=1;" edge="1" parent="1" source="13" target="5"><mxGeometry relative="1" as="geometry"><Array as="points"><mxPoint x="62" y="1065"/><mxPoint x="236" y="1025"/></Array></mxGeometry></mxCell><mxCell id="PublicSubnet1|PublicSubnet1RouteTableAssociation" value="SubnetId" style="edgeStyle=orthogonalEdgeStyle;rounded=1;orthogonalLoop=1;jettySize=auto;html=1;labelBackgroundColor=none;fontColor=#EA6B66;noEdgeStyle=1;orthogonal=1;" edge="1" parent="1" source="13" target="9"><mxGeometry relative="1" as="geometry"><Array as="points"><mxPoint x="62" y="1085"/><mxPoint x="150" y="1100"/><mxPoint x="400" y="1100"/><mxPoint x="488" y="1161.6666666666667"/></Array></mxGeometry></mxCell><mxCell id="PublicRouteTable|PublicSubnet2RouteTableAssociation" value="RouteTableId" style="edgeStyle=orthogonalEdgeStyle;rounded=1;orthogonalLoop=1;jettySize=auto;html=1;labelBackgroundColor=none;fontColor=#EA6B66;noEdgeStyle=1;orthogonal=1;" edge="1" parent="1" source="14" target="5"><mxGeometry relative="1" as="geometry"><Array as="points"><mxPoint x="62" y="1165"/><mxPoint x="238" y="1038.3333333333333"/></Array></mxGeometry></mxCell><mxCell id="PublicSubnet2|PublicSubnet2RouteTableAssociation" value="SubnetId" style="edgeStyle=orthogonalEdgeStyle;rounded=1;orthogonalLoop=1;jettySize=auto;html=1;labelBackgroundColor=none;fontColor=#EA6B66;noEdgeStyle=1;orthogonal=1;" edge="1" parent="1" source="14" target="10"><mxGeometry relative="1" as="geometry"><Array as="points"><mxPoint x="62" y="1185"/><mxPoint x="150" y="1250"/><mxPoint x="400" y="1250"/><mxPoint x="488" y="1411.6666666666667"/></Array></mxGeometry></mxCell><mxCell id="PublicSubnet1|NatGateway1" value="SubnetId" style="edgeStyle=orthogonalEdgeStyle;rounded=1;orthogonalLoop=1;jettySize=auto;html=1;labelBackgroundColor=none;fontColor=#EA6B66;noEdgeStyle=1;orthogonal=1;" edge="1" parent="1" source="16" target="9"><mxGeometry relative="1" as="geometry"><Array as="points"><mxPoint x="312" y="1165"/><mxPoint x="486" y="1175"/></Array></mxGeometry></mxCell><mxCell id="NatGateway1Attachment|NatGateway1" value="AllocationId" style="edgeStyle=orthogonalEdgeStyle;rounded=1;orthogonalLoop=1;jettySize=auto;html=1;labelBackgroundColor=none;fontColor=#EA6B66;noEdgeStyle=1;orthogonal=1;" edge="1" parent="1" source="16" target="15"><mxGeometry relative="1" as="geometry"><Array as="points"><mxPoint x="312" y="1185"/><mxPoint x="488" y="1275"/></Array></mxGeometry></mxCell><mxCell id="VPC|PrivateRouteTable1" value="VpcId" style="edgeStyle=orthogonalEdgeStyle;rounded=1;orthogonalLoop=1;jettySize=auto;html=1;labelBackgroundColor=none;fontColor=#EA6B66;noEdgeStyle=1;orthogonal=1;" edge="1" parent="1" source="17" target="4"><mxGeometry relative="1" as="geometry"><Array as="points"><mxPoint x="312" y="1325"/><mxPoint x="400" y="1350"/><mxPoint x="650" y="1350"/><mxPoint x="732" y="1810.294117647059"/></Array></mxGeometry></mxCell><mxCell id="PrivateRouteTable1|PrivateRoute1" value="RouteTableId" style="edgeStyle=orthogonalEdgeStyle;rounded=1;orthogonalLoop=1;jettySize=auto;html=1;labelBackgroundColor=none;fontColor=#EA6B66;noEdgeStyle=1;orthogonal=1;" edge="1" parent="1" source="18" target="17"><mxGeometry relative="1" as="geometry"><Array as="points"><mxPoint x="62" y="1285"/><mxPoint x="238" y="1315"/></Array></mxGeometry></mxCell><mxCell id="NatGateway1|PrivateRoute1" value="NatGatewayId" style="edgeStyle=orthogonalEdgeStyle;rounded=1;orthogonalLoop=1;jettySize=auto;html=1;labelBackgroundColor=none;fontColor=#EA6B66;noEdgeStyle=1;orthogonal=1;" edge="1" parent="1" source="18" target="16"><mxGeometry relative="1" as="geometry"><Array as="points"><mxPoint x="62" y="1265"/><mxPoint x="238" y="1175"/></Array></mxGeometry></mxCell><mxCell id="PrivateRouteTable1|PrivateRouteTable1Association" value="RouteTableId" style="edgeStyle=orthogonalEdgeStyle;rounded=1;orthogonalLoop=1;jettySize=auto;html=1;labelBackgroundColor=none;fontColor=#EA6B66;noEdgeStyle=1;orthogonal=1;" edge="1" parent="1" source="19" target="17"><mxGeometry relative="1" as="geometry"><Array as="points"><mxPoint x="62" y="1365"/><mxPoint x="238" y="1335"/></Array></mxGeometry></mxCell><mxCell id="PrivateSubnet1|PrivateRouteTable1Association" value="SubnetId" style="edgeStyle=orthogonalEdgeStyle;rounded=1;orthogonalLoop=1;jettySize=auto;html=1;labelBackgroundColor=none;fontColor=#EA6B66;noEdgeStyle=1;orthogonal=1;" edge="1" parent="1" source="19" target="11"><mxGeometry relative="1" as="geometry"><Array as="points"><mxPoint x="62" y="1385"/><mxPoint x="150" y="1500"/><mxPoint x="400" y="1500"/><mxPoint x="488" y="2311.6666666666665"/></Array></mxGeometry></mxCell><mxCell id="PublicSubnet2|NatGateway2" value="SubnetId" style="edgeStyle=orthogonalEdgeStyle;rounded=1;orthogonalLoop=1;jettySize=auto;html=1;labelBackgroundColor=none;fontColor=#EA6B66;noEdgeStyle=1;orthogonal=1;" edge="1" parent="1" source="21" target="10"><mxGeometry relative="1" as="geometry"><Array as="points"><mxPoint x="312" y="1415"/><mxPoint x="486" y="1425"/></Array></mxGeometry></mxCell><mxCell id="NatGateway2Attachment|NatGateway2" value="AllocationId" style="edgeStyle=orthogonalEdgeStyle;rounded=1;orthogonalLoop=1;jettySize=auto;html=1;labelBackgroundColor=none;fontColor=#EA6B66;noEdgeStyle=1;orthogonal=1;" edge="1" parent="1" source="21" target="20"><mxGeometry relative="1" as="geometry"><Array as="points"><mxPoint x="312" y="1435"/><mxPoint x="488" y="1525"/></Array></mxGeometry></mxCell><mxCell id="VPC|PrivateRouteTable2" value="VpcId" style="edgeStyle=orthogonalEdgeStyle;rounded=1;orthogonalLoop=1;jettySize=auto;html=1;labelBackgroundColor=none;fontColor=#EA6B66;noEdgeStyle=1;orthogonal=1;" edge="1" parent="1" source="22" target="4"><mxGeometry relative="1" as="geometry"><Array as="points"><mxPoint x="312" y="1575"/><mxPoint x="400" y="1600"/><mxPoint x="650" y="1600"/><mxPoint x="728" y="1816.1764705882356"/></Array></mxGeometry></mxCell><mxCell id="PrivateRouteTable2|PrivateRoute2" value="RouteTableId" style="edgeStyle=orthogonalEdgeStyle;rounded=1;orthogonalLoop=1;jettySize=auto;html=1;labelBackgroundColor=none;fontColor=#EA6B66;noEdgeStyle=1;orthogonal=1;" edge="1" parent="1" source="23" target="22"><mxGeometry relative="1" as="geometry"><Array as="points"><mxPoint x="62" y="1485"/><mxPoint x="238" y="1565"/></Array></mxGeometry></mxCell><mxCell id="NatGateway2|PrivateRoute2" value="NatGatewayId" style="edgeStyle=orthogonalEdgeStyle;rounded=1;orthogonalLoop=1;jettySize=auto;html=1;labelBackgroundColor=none;fontColor=#EA6B66;noEdgeStyle=1;orthogonal=1;" edge="1" parent="1" source="23" target="21"><mxGeometry relative="1" as="geometry"><Array as="points"><mxPoint x="62" y="1465"/><mxPoint x="238" y="1425"/></Array></mxGeometry></mxCell><mxCell id="PrivateRouteTable2|PrivateRouteTable2Association" value="RouteTableId" style="edgeStyle=orthogonalEdgeStyle;rounded=1;orthogonalLoop=1;jettySize=auto;html=1;labelBackgroundColor=none;fontColor=#EA6B66;noEdgeStyle=1;orthogonal=1;" edge="1" parent="1" source="24" target="22"><mxGeometry relative="1" as="geometry"><Array as="points"><mxPoint x="62" y="1565"/><mxPoint x="238" y="1585"/></Array></mxGeometry></mxCell><mxCell id="PrivateSubnet2|PrivateRouteTable2Association" value="SubnetId" style="edgeStyle=orthogonalEdgeStyle;rounded=1;orthogonalLoop=1;jettySize=auto;html=1;labelBackgroundColor=none;fontColor=#EA6B66;noEdgeStyle=1;orthogonal=1;" edge="1" parent="1" source="24" target="12"><mxGeometry relative="1" as="geometry"><Array as="points"><mxPoint x="62" y="1585"/><mxPoint x="150" y="1650"/><mxPoint x="400" y="1650"/><mxPoint x="488" y="2411.6666666666665"/></Array></mxGeometry></mxCell><mxCell id="VPC|ServiceDiscoveryNamespace" value="Vpc" style="edgeStyle=orthogonalEdgeStyle;rounded=1;orthogonalLoop=1;jettySize=auto;html=1;labelBackgroundColor=none;fontColor=#EA6B66;noEdgeStyle=1;orthogonal=1;" edge="1" parent="1" source="25" target="4"><mxGeometry relative="1" as="geometry"><Array as="points"><mxPoint x="562" y="1825"/><mxPoint x="722" y="1825.0000000000005"/></Array></mxGeometry></mxCell><mxCell id="VPC|PublicHTTPLoadBalancerSecurityGroup" value="VpcId" style="edgeStyle=orthogonalEdgeStyle;rounded=1;orthogonalLoop=1;jettySize=auto;html=1;labelBackgroundColor=none;fontColor=#EA6B66;noEdgeStyle=1;orthogonal=1;" edge="1" parent="1" source="27" target="4"><mxGeometry relative="1" as="geometry"><Array as="points"><mxPoint x="562" y="1725"/><mxPoint x="724" y="1822.0588235294122"/></Array></mxGeometry></mxCell><mxCell id="VPC|PublicHTTPSLoadBalancerSecurityGroup" value="VpcId" style="edgeStyle=orthogonalEdgeStyle;rounded=1;orthogonalLoop=1;jettySize=auto;html=1;labelBackgroundColor=none;fontColor=#EA6B66;noEdgeStyle=1;orthogonal=1;" edge="1" parent="1" source="28" target="4"><mxGeometry relative="1" as="geometry"><Array as="points"><mxPoint x="562" y="1925"/><mxPoint x="724" y="1827.9411764705887"/></Array></mxGeometry></mxCell><mxCell id="VPC|InternalLoadBalancerSecurityGroup" value="VpcId" style="edgeStyle=orthogonalEdgeStyle;rounded=1;orthogonalLoop=1;jettySize=auto;html=1;labelBackgroundColor=none;fontColor=#EA6B66;noEdgeStyle=1;orthogonal=1;" edge="1" parent="1" source="29" target="4"><mxGeometry relative="1" as="geometry"><Array as="points"><mxPoint x="562" y="2025"/><mxPoint x="726" y="1830.882352941177"/></Array></mxGeometry></mxCell><mxCell id="VPC|EnvironmentSecurityGroup" value="VpcId" style="edgeStyle=orthogonalEdgeStyle;rounded=1;orthogonalLoop=1;jettySize=auto;html=1;labelBackgroundColor=none;fontColor=#EA6B66;noEdgeStyle=1;orthogonal=1;" edge="1" parent="1" source="30" target="4"><mxGeometry relative="1" as="geometry"><Array as="points"><mxPoint x="312" y="1875"/><mxPoint x="400" y="1650"/><mxPoint x="650" y="1650"/><mxPoint x="726" y="1819.1176470588239"/></Array></mxGeometry></mxCell><mxCell id="EnvironmentSecurityGroup|EnvironmentHTTPSecurityGroupIngressFromPublicALB" value="GroupId" style="edgeStyle=orthogonalEdgeStyle;rounded=1;orthogonalLoop=1;jettySize=auto;html=1;labelBackgroundColor=none;fontColor=#EA6B66;noEdgeStyle=1;orthogonal=1;" edge="1" parent="1" source="31" target="30"><mxGeometry relative="1" as="geometry"><Array as="points"><mxPoint x="62" y="1685"/><mxPoint x="238" y="1858.3333333333333"/></Array></mxGeometry></mxCell><mxCell id="PublicHTTPLoadBalancerSecurityGroup|EnvironmentHTTPSecurityGroupIngressFromPublicALB" value="SourceSecurityGroupId" style="edgeStyle=orthogonalEdgeStyle;rounded=1;orthogonalLoop=1;jettySize=auto;html=1;labelBackgroundColor=none;fontColor=#EA6B66;noEdgeStyle=1;orthogonal=1;" edge="1" parent="1" source="31" target="27"><mxGeometry relative="1" as="geometry"><Array as="points"><mxPoint x="62" y="1665"/><mxPoint x="150" y="1700"/><mxPoint x="400" y="1700"/><mxPoint x="488" y="1715"/></Array></mxGeometry></mxCell><mxCell id="EnvironmentSecurityGroup|EnvironmentHTTPSSecurityGroupIngressFromPublicALB" value="GroupId" style="edgeStyle=orthogonalEdgeStyle;rounded=1;orthogonalLoop=1;jettySize=auto;html=1;labelBackgroundColor=none;fontColor=#EA6B66;noEdgeStyle=1;orthogonal=1;" edge="1" parent="1" source="32" target="30"><mxGeometry relative="1" as="geometry"><Array as="points"><mxPoint x="62" y="1785"/><mxPoint x="236" y="1865"/></Array></mxGeometry></mxCell><mxCell id="PublicHTTPSLoadBalancerSecurityGroup|EnvironmentHTTPSSecurityGroupIngressFromPublicALB" value="SourceSecurityGroupId" style="edgeStyle=orthogonalEdgeStyle;rounded=1;orthogonalLoop=1;jettySize=auto;html=1;labelBackgroundColor=none;fontColor=#EA6B66;noEdgeStyle=1;orthogonal=1;" edge="1" parent="1" source="32" target="28"><mxGeometry relative="1" as="geometry"><Array as="points"><mxPoint x="62" y="1765"/><mxPoint x="150" y="1750"/><mxPoint x="400" y="1750"/><mxPoint x="488" y="1915"/></Array></mxGeometry></mxCell><mxCell id="EnvironmentSecurityGroup|EnvironmentSecurityGroupIngressFromInternalALB" value="GroupId" style="edgeStyle=orthogonalEdgeStyle;rounded=1;orthogonalLoop=1;jettySize=auto;html=1;labelBackgroundColor=none;fontColor=#EA6B66;noEdgeStyle=1;orthogonal=1;" edge="1" parent="1" source="33" target="30"><mxGeometry relative="1" as="geometry"><Array as="points"><mxPoint x="62" y="1885"/><mxPoint x="234" y="1871.6666666666667"/></Array></mxGeometry></mxCell><mxCell id="InternalLoadBalancerSecurityGroup|EnvironmentSecurityGroupIngressFromInternalALB" value="SourceSecurityGroupId" style="edgeStyle=orthogonalEdgeStyle;rounded=1;orthogonalLoop=1;jettySize=auto;html=1;labelBackgroundColor=none;fontColor=#EA6B66;noEdgeStyle=1;orthogonal=1;" edge="1" parent="1" source="33" target="29"><mxGeometry relative="1" as="geometry"><Array as="points"><mxPoint x="62" y="1865"/><mxPoint x="150" y="1800"/><mxPoint x="400" y="1800"/><mxPoint x="488" y="2011.6666666666667"/></Array></mxGeometry></mxCell><mxCell id="EnvironmentSecurityGroup|EnvironmentSecurityGroupIngressFromSelf" value="GroupId&#xA;SourceSecurityGroupId" style="edgeStyle=orthogonalEdgeStyle;rounded=1;orthogonalLoop=1;jettySize=auto;html=1;labelBackgroundColor=none;fontColor=#EA6B66;noEdgeStyle=1;orthogonal=1;" edge="1" parent="1" source="34" target="30"><mxGeometry relative="1" as="geometry"><Array as="points"><mxPoint x="62" y="1975"/><mxPoint x="234" y="1878.3333333333335"/></Array></mxGeometry></mxCell><mxCell id="InternalLoadBalancerSecurityGroup|InternalALBIngressFromEnvironmentSecurityGroup" value="GroupId" style="edgeStyle=orthogonalEdgeStyle;rounded=1;orthogonalLoop=1;jettySize=auto;html=1;labelBackgroundColor=none;fontColor=#EA6B66;noEdgeStyle=1;orthogonal=1;" edge="1" parent="1" source="35" target="29"><mxGeometry relative="1" as="geometry"><Array as="points"><mxPoint x="62" y="2085"/><mxPoint x="150" y="2050"/><mxPoint x="400" y="2050"/><mxPoint x="486" y="2025"/></Array></mxGeometry></mxCell><mxCell id="EnvironmentSecurityGroup|InternalALBIngressFromEnvironmentSecurityGroup" value="SourceSecurityGroupId" style="edgeStyle=orthogonalEdgeStyle;rounded=1;orthogonalLoop=1;jettySize=auto;html=1;labelBackgroundColor=none;fontColor=#EA6B66;noEdgeStyle=1;orthogonal=1;" edge="1" parent="1" source="35" target="30"><mxGeometry relative="1" as="geometry"><Array as="points"><mxPoint x="62" y="2065"/><mxPoint x="236" y="1885.0000000000002"/></Array></mxGeometry></mxCell><mxCell id="PublicSubnet1|PublicLoadBalancer" value="Subnets" style="edgeStyle=orthogonalEdgeStyle;rounded=1;orthogonalLoop=1;jettySize=auto;html=1;labelBackgroundColor=none;fontColor=#EA6B66;noEdgeStyle=1;orthogonal=1;" edge="1" parent="1" source="36" target="9"><mxGeometry relative="1" as="geometry"><Array as="points"><mxPoint x="312" y="1960"/><mxPoint x="488" y="1188.3333333333333"/></Array></mxGeometry></mxCell><mxCell id="PublicSubnet2|PublicLoadBalancer" value="Subnets" style="edgeStyle=orthogonalEdgeStyle;rounded=1;orthogonalLoop=1;jettySize=auto;html=1;labelBackgroundColor=none;fontColor=#EA6B66;noEdgeStyle=1;orthogonal=1;" edge="1" parent="1" source="36" target="10"><mxGeometry relative="1" as="geometry"><Array as="points"><mxPoint x="314" y="1970"/><mxPoint x="488" y="1438.3333333333333"/></Array></mxGeometry></mxCell><mxCell id="PublicHTTPLoadBalancerSecurityGroup|PublicLoadBalancer" value="SecurityGroups" style="edgeStyle=orthogonalEdgeStyle;rounded=1;orthogonalLoop=1;jettySize=auto;html=1;labelBackgroundColor=none;fontColor=#EA6B66;noEdgeStyle=1;orthogonal=1;" edge="1" parent="1" source="36" target="27"><mxGeometry relative="1" as="geometry"><Array as="points"><mxPoint x="314" y="1980"/><mxPoint x="488" y="1735"/></Array></mxGeometry></mxCell><mxCell id="PublicHTTPSLoadBalancerSecurityGroup|PublicLoadBalancer" value="SecurityGroups" style="edgeStyle=orthogonalEdgeStyle;rounded=1;orthogonalLoop=1;jettySize=auto;html=1;labelBackgroundColor=none;fontColor=#EA6B66;noEdgeStyle=1;orthogonal=1;" edge="1" parent="1" source="36" target="28"><mxGeometry relative="1" as="geometry"><Array as="points"><mxPoint x="312" y="1990"/><mxPoint x="488" y="1935"/></Array></mxGeometry></mxCell><mxCell id="VPC|DefaultHTTPTargetGroup" value="VpcId" style="edgeStyle=orthogonalEdgeStyle;rounded=1;orthogonalLoop=1;jettySize=auto;html=1;labelBackgroundColor=none;fontColor=#EA6B66;noEdgeStyle=1;orthogonal=1;" edge="1" parent="1" source="37" target="4"><mxGeometry relative="1" as="geometry"><Array as="points"><mxPoint x="312" y="2125"/><mxPoint x="400" y="2100"/><mxPoint x="650" y="2100"/><mxPoint x="728" y="1833.8235294117653"/></Array></mxGeometry></mxCell><mxCell id="DefaultHTTPTargetGroup|HTTPListener" value="TargetGroupArn" style="edgeStyle=orthogonalEdgeStyle;rounded=1;orthogonalLoop=1;jettySize=auto;html=1;labelBackgroundColor=none;fontColor=#EA6B66;noEdgeStyle=1;orthogonal=1;" edge="1" parent="1" source="38" target="37"><mxGeometry relative="1" as="geometry"><Array as="points"><mxPoint x="62" y="2185"/><mxPoint x="238" y="2115"/></Array></mxGeometry></mxCell><mxCell id="PublicLoadBalancer|HTTPListener" value="LoadBalancerArn" style="edgeStyle=orthogonalEdgeStyle;rounded=1;orthogonalLoop=1;jettySize=auto;html=1;labelBackgroundColor=none;fontColor=#EA6B66;noEdgeStyle=1;orthogonal=1;" edge="1" parent="1" source="38" target="36"><mxGeometry relative="1" as="geometry"><Array as="points"><mxPoint x="62" y="2165"/><mxPoint x="238" y="1961.6666666666667"/></Array></mxGeometry></mxCell><mxCell id="HTTPSCert|HTTPSListener" value="CertificateArn" style="edgeStyle=orthogonalEdgeStyle;rounded=1;orthogonalLoop=1;jettySize=auto;html=1;labelBackgroundColor=none;fontColor=#EA6B66;noEdgeStyle=1;orthogonal=1;" edge="1" parent="1" source="39" target="56"><mxGeometry relative="1" as="geometry"><Array as="points"><mxPoint x="62" y="2288.3333333333335"/><mxPoint x="238" y="2225"/></Array></mxGeometry></mxCell><mxCell id="DefaultHTTPTargetGroup|HTTPSListener" value="TargetGroupArn" style="edgeStyle=orthogonalEdgeStyle;rounded=1;orthogonalLoop=1;jettySize=auto;html=1;labelBackgroundColor=none;fontColor=#EA6B66;noEdgeStyle=1;orthogonal=1;" edge="1" parent="1" source="39" target="37"><mxGeometry relative="1" as="geometry"><Array as="points"><mxPoint x="64" y="2275"/><mxPoint x="238" y="2135"/></Array></mxGeometry></mxCell><mxCell id="PublicLoadBalancer|HTTPSListener" value="LoadBalancerArn" style="edgeStyle=orthogonalEdgeStyle;rounded=1;orthogonalLoop=1;jettySize=auto;html=1;labelBackgroundColor=none;fontColor=#EA6B66;noEdgeStyle=1;orthogonal=1;" edge="1" parent="1" source="39" target="36"><mxGeometry relative="1" as="geometry"><Array as="points"><mxPoint x="62" y="2261.6666666666665"/><mxPoint x="236" y="1975"/></Array></mxGeometry></mxCell><mxCell id="PrivateSubnet1|InternalLoadBalancer" value="Subnets" style="edgeStyle=orthogonalEdgeStyle;rounded=1;orthogonalLoop=1;jettySize=auto;html=1;labelBackgroundColor=none;fontColor=#EA6B66;noEdgeStyle=1;orthogonal=1;" edge="1" parent="1" source="40" target="11"><mxGeometry relative="1" as="geometry"><Array as="points"><mxPoint x="314" y="2425"/><mxPoint x="486" y="2325"/></Array></mxGeometry></mxCell><mxCell id="PrivateSubnet2|InternalLoadBalancer" value="Subnets" style="edgeStyle=orthogonalEdgeStyle;rounded=1;orthogonalLoop=1;jettySize=auto;html=1;labelBackgroundColor=none;fontColor=#EA6B66;noEdgeStyle=1;orthogonal=1;" edge="1" parent="1" source="40" target="12"><mxGeometry relative="1" as="geometry"><Array as="points"><mxPoint x="312" y="2438.3333333333335"/><mxPoint x="486" y="2425"/></Array></mxGeometry></mxCell><mxCell id="InternalLoadBalancerSecurityGroup|InternalLoadBalancer" value="SecurityGroups" style="edgeStyle=orthogonalEdgeStyle;rounded=1;orthogonalLoop=1;jettySize=auto;html=1;labelBackgroundColor=none;fontColor=#EA6B66;noEdgeStyle=1;orthogonal=1;" edge="1" parent="1" source="40" target="29"><mxGeometry relative="1" as="geometry"><Array as="points"><mxPoint x="312" y="2411.6666666666665"/><mxPoint x="488" y="2038.3333333333333"/></Array></mxGeometry></mxCell><mxCell id="VPC|DefaultInternalHTTPTargetGroup" value="VpcId" style="edgeStyle=orthogonalEdgeStyle;rounded=1;orthogonalLoop=1;jettySize=auto;html=1;labelBackgroundColor=none;fontColor=#EA6B66;noEdgeStyle=1;orthogonal=1;" edge="1" parent="1" source="41" target="4"><mxGeometry relative="1" as="geometry"><Array as="points"><mxPoint x="312" y="2325"/><mxPoint x="400" y="2250"/><mxPoint x="650" y="2250"/><mxPoint x="730" y="1836.7647058823536"/></Array></mxGeometry></mxCell><mxCell id="DefaultInternalHTTPTargetGroup|InternalHTTPListener" value="TargetGroupArn" style="edgeStyle=orthogonalEdgeStyle;rounded=1;orthogonalLoop=1;jettySize=auto;html=1;labelBackgroundColor=none;fontColor=#EA6B66;noEdgeStyle=1;orthogonal=1;" edge="1" parent="1" source="42" target="41"><mxGeometry relative="1" as="geometry"><Array as="points"><mxPoint x="62" y="2365"/><mxPoint x="238" y="2315"/></Array></mxGeometry></mxCell><mxCell id="InternalLoadBalancer|InternalHTTPListener" value="LoadBalancerArn" style="edgeStyle=orthogonalEdgeStyle;rounded=1;orthogonalLoop=1;jettySize=auto;html=1;labelBackgroundColor=none;fontColor=#EA6B66;noEdgeStyle=1;orthogonal=1;" edge="1" parent="1" source="42" target="40"><mxGeometry relative="1" as="geometry"><Array as="points"><mxPoint x="62" y="2385"/><mxPoint x="238" y="2415"/></Array></mxGeometry></mxCell><mxCell id="DefaultInternalHTTPTargetGroup|InternalHTTPSListener" value="TargetGroupArn" style="edgeStyle=orthogonalEdgeStyle;rounded=1;orthogonalLoop=1;jettySize=auto;html=1;labelBackgroundColor=none;fontColor=#EA6B66;noEdgeStyle=1;orthogonal=1;" edge="1" parent="1" source="43" target="41"><mxGeometry relative="1" as="geometry"><Array as="points"><mxPoint x="62" y="2465"/><mxPoint x="238" y="2335"/></Array></mxGeometry></mxCell><mxCell id="InternalLoadBalancer|InternalHTTPSListener" value="LoadBalancerArn" style="edgeStyle=orthogonalEdgeStyle;rounded=1;orthogonalLoop=1;jettySize=auto;html=1;labelBackgroundColor=none;fontColor=#EA6B66;noEdgeStyle=1;orthogonal=1;" edge="1" parent="1" source="43" target="40"><mxGeometry relative="1" as="geometry"><Array as="points"><mxPoint x="62" y="2485"/><mxPoint x="238" y="2435"/></Array></mxGeometry></mxCell><mxCell id="VPC|InternalWorkloadsHostedZone" value="VPCId" style="edgeStyle=orthogonalEdgeStyle;rounded=1;orthogonalLoop=1;jettySize=auto;html=1;labelBackgroundColor=none;fontColor=#EA6B66;noEdgeStyle=1;orthogonal=1;" edge="1" parent="1" source="44" target="4"><mxGeometry relative="1" as="geometry"><Array as="points"><mxPoint x="562" y="2575"/><mxPoint x="738" y="1848.5294117647068"/></Array></mxGeometry></mxCell><mxCell id="VPC|EFSSecurityGroup" value="VpcId" style="edgeStyle=orthogonalEdgeStyle;rounded=1;orthogonalLoop=1;jettySize=auto;html=1;labelBackgroundColor=none;fontColor=#EA6B66;noEdgeStyle=1;orthogonal=1;" edge="1" parent="1" source="46" target="4"><mxGeometry relative="1" as="geometry"><Array as="points"><mxPoint x="312" y="2575"/><mxPoint x="400" y="2500"/><mxPoint x="650" y="2500"/><mxPoint x="736" y="1845.5882352941185"/></Array></mxGeometry></mxCell><mxCell id="EFSSecurityGroup|EFSSecurityGroupIngressFromEnvironment" value="GroupId" style="edgeStyle=orthogonalEdgeStyle;rounded=1;orthogonalLoop=1;jettySize=auto;html=1;labelBackgroundColor=none;fontColor=#EA6B66;noEdgeStyle=1;orthogonal=1;" edge="1" parent="1" source="47" target="46"><mxGeometry relative="1" as="geometry"><Array as="points"><mxPoint x="62" y="2585"/><mxPoint x="238" y="2561.6666666666665"/></Array></mxGeometry></mxCell><mxCell id="EnvironmentSecurityGroup|EFSSecurityGroupIngressFromEnvironment" value="SourceSecurityGroupId" style="edgeStyle=orthogonalEdgeStyle;rounded=1;orthogonalLoop=1;jettySize=auto;html=1;labelBackgroundColor=none;fontColor=#EA6B66;noEdgeStyle=1;orthogonal=1;" edge="1" parent="1" source="47" target="30"><mxGeometry relative="1" as="geometry"><Array as="points"><mxPoint x="62" y="2565"/><mxPoint x="238" y="1891.666666666667"/></Array></mxGeometry></mxCell><mxCell id="FileSystem|MountTarget1" value="FileSystemId" style="edgeStyle=orthogonalEdgeStyle;rounded=1;orthogonalLoop=1;jettySize=auto;html=1;labelBackgroundColor=none;fontColor=#EA6B66;noEdgeStyle=1;orthogonal=1;" edge="1" parent="1" source="48" target="45"><mxGeometry relative="1" as="geometry"><Array as="points"><mxPoint x="62" y="2688.3333333333335"/><mxPoint x="238" y="2665"/></Array></mxGeometry></mxCell><mxCell id="PrivateSubnet1|MountTarget1" value="SubnetId" style="edgeStyle=orthogonalEdgeStyle;rounded=1;orthogonalLoop=1;jettySize=auto;html=1;labelBackgroundColor=none;fontColor=#EA6B66;noEdgeStyle=1;orthogonal=1;" edge="1" parent="1" source="48" target="11"><mxGeometry relative="1" as="geometry"><Array as="points"><mxPoint x="62" y="2661.6666666666665"/><mxPoint x="150" y="2500"/><mxPoint x="400" y="2500"/><mxPoint x="488" y="2338.3333333333335"/></Array></mxGeometry></mxCell><mxCell id="EFSSecurityGroup|MountTarget1" value="SecurityGroups" style="edgeStyle=orthogonalEdgeStyle;rounded=1;orthogonalLoop=1;jettySize=auto;html=1;labelBackgroundColor=none;fontColor=#EA6B66;noEdgeStyle=1;orthogonal=1;" edge="1" parent="1" source="48" target="46"><mxGeometry relative="1" as="geometry"><Array as="points"><mxPoint x="64" y="2675"/><mxPoint x="236" y="2575"/></Array></mxGeometry></mxCell><mxCell id="FileSystem|MountTarget2" value="FileSystemId" style="edgeStyle=orthogonalEdgeStyle;rounded=1;orthogonalLoop=1;jettySize=auto;html=1;labelBackgroundColor=none;fontColor=#EA6B66;noEdgeStyle=1;orthogonal=1;" edge="1" parent="1" source="49" target="45"><mxGeometry relative="1" as="geometry"><Array as="points"><mxPoint x="64" y="2775"/><mxPoint x="238" y="2685"/></Array></mxGeometry></mxCell><mxCell id="PrivateSubnet2|MountTarget2" value="SubnetId" style="edgeStyle=orthogonalEdgeStyle;rounded=1;orthogonalLoop=1;jettySize=auto;html=1;labelBackgroundColor=none;fontColor=#EA6B66;noEdgeStyle=1;orthogonal=1;" edge="1" parent="1" source="49" target="12"><mxGeometry relative="1" as="geometry"><Array as="points"><mxPoint x="62" y="2788.3333333333335"/><mxPoint x="150" y="2750"/><mxPoint x="400" y="2750"/><mxPoint x="488" y="2438.3333333333335"/></Array></mxGeometry></mxCell><mxCell id="EFSSecurityGroup|MountTarget2" value="SecurityGroups" style="edgeStyle=orthogonalEdgeStyle;rounded=1;orthogonalLoop=1;jettySize=auto;html=1;labelBackgroundColor=none;fontColor=#EA6B66;noEdgeStyle=1;orthogonal=1;" edge="1" parent="1" source="49" target="46"><mxGeometry relative="1" as="geometry"><Array as="points"><mxPoint x="62" y="2761.6666666666665"/><mxPoint x="238" y="2588.3333333333335"/></Array></mxGeometry></mxCell><mxCell id="CustomResourceRole|CertificateValidationFunction" value="Role" style="edgeStyle=orthogonalEdgeStyle;rounded=1;orthogonalLoop=1;jettySize=auto;html=1;labelBackgroundColor=none;fontColor=#EA6B66;noEdgeStyle=1;orthogonal=1;" edge="1" parent="1" source="52" target="50"><mxGeometry relative="1" as="geometry"><Array as="points"><mxPoint x="562" y="2175"/><mxPoint x="738" y="2736.6666666666665"/></Array></mxGeometry></mxCell><mxCell id="CustomResourceRole|CustomDomainFunction" value="Role" style="edgeStyle=orthogonalEdgeStyle;rounded=1;orthogonalLoop=1;jettySize=auto;html=1;labelBackgroundColor=none;fontColor=#EA6B66;noEdgeStyle=1;orthogonal=1;" edge="1" parent="1" source="53" target="50"><mxGeometry relative="1" as="geometry"><Array as="points"><mxPoint x="312" y="2975"/><mxPoint x="400" y="2862.5"/><mxPoint x="650" y="2862.5"/><mxPoint x="738" y="2763.3333333333335"/></Array></mxGeometry></mxCell><mxCell id="CustomResourceRole|DNSDelegationFunction" value="Role" style="edgeStyle=orthogonalEdgeStyle;rounded=1;orthogonalLoop=1;jettySize=auto;html=1;labelBackgroundColor=none;fontColor=#EA6B66;noEdgeStyle=1;orthogonal=1;" edge="1" parent="1" source="54" target="50"><mxGeometry relative="1" as="geometry"><Array as="points"><mxPoint x="312" y="2875"/><mxPoint x="400" y="2750"/><mxPoint x="650" y="2750"/><mxPoint x="736" y="2750"/></Array></mxGeometry></mxCell><mxCell id="DNSDelegationFunction|DelegateDNSAction" value="ServiceToken" style="edgeStyle=orthogonalEdgeStyle;rounded=1;orthogonalLoop=1;jettySize=auto;html=1;labelBackgroundColor=none;fontColor=#EA6B66;noEdgeStyle=1;orthogonal=1;" edge="1" parent="1" source="55" target="54"><mxGeometry relative="1" as="geometry"><Array as="points"><mxPoint x="62" y="2885"/><mxPoint x="238" y="2875"/></Array></mxGeometry></mxCell><mxCell id="EnvironmentHostedZone|DelegateDNSAction" value="NameServers" style="edgeStyle=orthogonalEdgeStyle;rounded=1;orthogonalLoop=1;jettySize=auto;html=1;labelBackgroundColor=none;fontColor=#EA6B66;noEdgeStyle=1;orthogonal=1;" edge="1" parent="1" source="55" target="51"><mxGeometry relative="1" as="geometry"><Array as="points"><mxPoint x="62" y="2865"/><mxPoint x="150" y="2800"/><mxPoint x="400" y="2800"/><mxPoint x="488" y="2685"/></Array></mxGeometry></mxCell><mxCell id="EnvironmentHostedZone|HTTPSCert" value="EnvHostedZoneId" style="edgeStyle=orthogonalEdgeStyle;rounded=1;orthogonalLoop=1;jettySize=auto;html=1;labelBackgroundColor=none;fontColor=#EA6B66;noEdgeStyle=1;orthogonal=1;" edge="1" parent="1" source="56" target="51"><mxGeometry relative="1" as="geometry"><Array as="points"><mxPoint x="312" y="2235"/><mxPoint x="488" y="2665"/></Array></mxGeometry></mxCell><mxCell id="CertificateValidationFunction|HTTPSCert" value="ServiceToken" style="edgeStyle=orthogonalEdgeStyle;rounded=1;orthogonalLoop=1;jettySize=auto;html=1;labelBackgroundColor=none;fontColor=#EA6B66;noEdgeStyle=1;orthogonal=1;" edge="1" parent="1" source="56" target="52"><mxGeometry relative="1" as="geometry"><Array as="points"><mxPoint x="312" y="2215"/><mxPoint x="488" y="2175"/></Array></mxGeometry></mxCell><mxCell id="CustomDomainFunction|CustomDomainAction" value="ServiceToken" style="edgeStyle=orthogonalEdgeStyle;rounded=1;orthogonalLoop=1;jettySize=auto;html=1;labelBackgroundColor=none;fontColor=#EA6B66;noEdgeStyle=1;orthogonal=1;" edge="1" parent="1" source="57" target="53"><mxGeometry relative="1" as="geometry"><Array as="points"><mxPoint x="62" y="2985"/><mxPoint x="238" y="2975"/></Array></mxGeometry></mxCell><mxCell id="PublicLoadBalancer|CustomDomainAction" value="PublicAccessDNS&#xA;PublicAccessHostedZone" style="edgeStyle=orthogonalEdgeStyle;rounded=1;orthogonalLoop=1;jettySize=auto;html=1;labelBackgroundColor=none;fontColor=#EA6B66;noEdgeStyle=1;orthogonal=1;" edge="1" parent="1" source="57" target="36"><mxGeometry relative="1" as="geometry"><Array as="points"><mxPoint x="62" y="2965"/><mxPoint x="238" y="1988.3333333333333"/></Array></mxGeometry></mxCell></root></mxGraphModel>
            </diagram>
          </mxfile>